<svg xmlns="http://www.w3.org/2000/svg" xmlns:xlink="http://www.w3.org/1999/xlink" width="500" zoomAndPan="magnify" viewBox="0 0 375 374.999991" height="500" preserveAspectRatio="xMidYMid meet" version="1.0"><defs><g/></defs><g fill="#000000" fill-opacity="1"><g transform="translate(73.640738, 252.037024)"><g><path d="M 95.75 0 L 77.5 -63.96875 L 59.265625 0 L 30.390625 0 L -2.078125 -113.984375 L 26.796875 -113.984375 L 46.28125 -35.78125 L 46.96875 -35.78125 L 67.703125 -113.984375 L 87.3125 -113.984375 L 108.03125 -35.78125 L 108.734375 -35.78125 L 128.203125 -113.984375 L 156.953125 -113.984375 L 124.484375 0 Z M 95.75 0 "/></g></g></g><g fill="#000000" fill-opacity="1"><g transform="translate(146.486824, 251.288867)"><g><path d="M 95.75 0 L 77.5 -63.96875 L 59.265625 0 L 30.390625 0 L -2.078125 -113.984375 L 26.796875 -113.984375 L 46.28125 -35.78125 L 46.96875 -35.78125 L 67.703125 -113.984375 L 87.3125 -113.984375 L 108.03125 -35.78125 L 108.734375 -35.78125 L 128.203125 -113.984375 L 156.953125 -113.984375 L 124.484375 0 Z M 95.75 0 "/></g></g></g></svg>